<mxfile host="Electron" agent="Mozilla/5.0 (Windows NT 10.0; Win64; x64) AppleWebKit/537.36 (KHTML, like Gecko) draw.io/24.7.8 Chrome/128.0.6613.36 Electron/32.0.1 Safari/537.36" version="24.7.8">
  <diagram id="giPCUp976LIJPC9K3D7s" name="Page-2">
    <mxGraphModel dx="2387" dy="2161" grid="1" gridSize="10" guides="1" tooltips="1" connect="1" arrows="1" fold="1" page="1" pageScale="1" pageWidth="827" pageHeight="1169" math="0" shadow="0">
      <root>
        <mxCell id="0" />
        <mxCell id="1" parent="0" />
        <mxCell id="g43DRVjJpBwtmWt6dZrs-1" value="AgentUrbanisme" style="swimlane;whiteSpace=wrap;html=1;" parent="1" vertex="1">
          <mxGeometry x="40" y="10" width="160" height="160" as="geometry" />
        </mxCell>
        <mxCell id="g43DRVjJpBwtmWt6dZrs-2" value="-EmployéMairie_id" style="text;html=1;align=left;verticalAlign=middle;whiteSpace=wrap;rounded=0;" parent="g43DRVjJpBwtmWt6dZrs-1" vertex="1">
          <mxGeometry x="10" y="30" width="120" height="30" as="geometry" />
        </mxCell>
        <mxCell id="g43DRVjJpBwtmWt6dZrs-3" value="-poste" style="text;html=1;align=left;verticalAlign=middle;whiteSpace=wrap;rounded=0;" parent="g43DRVjJpBwtmWt6dZrs-1" vertex="1">
          <mxGeometry x="10" y="50" width="60" height="30" as="geometry" />
        </mxCell>
        <mxCell id="g43DRVjJpBwtmWt6dZrs-4" value="-service" style="text;html=1;align=left;verticalAlign=middle;whiteSpace=wrap;rounded=0;" parent="g43DRVjJpBwtmWt6dZrs-1" vertex="1">
          <mxGeometry x="10" y="80" width="100" height="30" as="geometry" />
        </mxCell>
        <mxCell id="g43DRVjJpBwtmWt6dZrs-5" value="-approuverDemande" style="text;html=1;align=left;verticalAlign=middle;whiteSpace=wrap;rounded=0;" parent="g43DRVjJpBwtmWt6dZrs-1" vertex="1">
          <mxGeometry x="10" y="100" width="130" height="30" as="geometry" />
        </mxCell>
        <mxCell id="g43DRVjJpBwtmWt6dZrs-6" value="-rejeterDemande" style="text;html=1;align=left;verticalAlign=middle;whiteSpace=wrap;rounded=0;" parent="g43DRVjJpBwtmWt6dZrs-1" vertex="1">
          <mxGeometry x="10" y="130" width="100" height="30" as="geometry" />
        </mxCell>
        <mxCell id="g43DRVjJpBwtmWt6dZrs-7" value="Réclamation" style="swimlane;whiteSpace=wrap;html=1;startSize=23;" parent="1" vertex="1">
          <mxGeometry x="440" y="280" width="160" height="180" as="geometry" />
        </mxCell>
        <mxCell id="g43DRVjJpBwtmWt6dZrs-8" value="-Reclamation_id" style="text;html=1;align=left;verticalAlign=middle;whiteSpace=wrap;rounded=0;" parent="g43DRVjJpBwtmWt6dZrs-7" vertex="1">
          <mxGeometry x="10" y="30" width="100" height="30" as="geometry" />
        </mxCell>
        <mxCell id="g43DRVjJpBwtmWt6dZrs-9" value="-typeReclamation" style="text;html=1;align=left;verticalAlign=middle;whiteSpace=wrap;rounded=0;" parent="g43DRVjJpBwtmWt6dZrs-7" vertex="1">
          <mxGeometry x="10" y="50" width="100" height="30" as="geometry" />
        </mxCell>
        <mxCell id="g43DRVjJpBwtmWt6dZrs-10" value="-description&lt;div&gt;&lt;br&gt;&lt;/div&gt;" style="text;html=1;align=left;verticalAlign=middle;whiteSpace=wrap;rounded=0;" parent="g43DRVjJpBwtmWt6dZrs-7" vertex="1">
          <mxGeometry x="10" y="90" width="90" height="30" as="geometry" />
        </mxCell>
        <mxCell id="6ejBX6rc1ui5b2HfKpKe-36" value="-statut&lt;div&gt;&lt;br&gt;&lt;/div&gt;" style="text;html=1;align=left;verticalAlign=middle;whiteSpace=wrap;rounded=0;" parent="g43DRVjJpBwtmWt6dZrs-7" vertex="1">
          <mxGeometry x="10" y="150" width="90" height="30" as="geometry" />
        </mxCell>
        <mxCell id="6ejBX6rc1ui5b2HfKpKe-35" value="-dateSoumission" style="text;html=1;align=left;verticalAlign=middle;whiteSpace=wrap;rounded=0;" parent="g43DRVjJpBwtmWt6dZrs-7" vertex="1">
          <mxGeometry x="10" y="120" width="100" height="30" as="geometry" />
        </mxCell>
        <mxCell id="g43DRVjJpBwtmWt6dZrs-11" value="DemandeAdministrative" style="swimlane;whiteSpace=wrap;html=1;" parent="1" vertex="1">
          <mxGeometry x="140" y="270" width="160" height="160" as="geometry">
            <mxRectangle x="80" y="240" width="160" height="120" as="alternateBounds" />
          </mxGeometry>
        </mxCell>
        <mxCell id="g43DRVjJpBwtmWt6dZrs-12" value="-Demande_id" style="text;html=1;align=left;verticalAlign=middle;whiteSpace=wrap;rounded=0;" parent="g43DRVjJpBwtmWt6dZrs-11" vertex="1">
          <mxGeometry x="13" y="30" width="97" height="30" as="geometry" />
        </mxCell>
        <mxCell id="g43DRVjJpBwtmWt6dZrs-13" value="- type" style="text;html=1;align=left;verticalAlign=middle;whiteSpace=wrap;rounded=0;" parent="g43DRVjJpBwtmWt6dZrs-11" vertex="1">
          <mxGeometry x="13" y="60" width="70" height="30" as="geometry" />
        </mxCell>
        <mxCell id="g43DRVjJpBwtmWt6dZrs-14" value="-dateSoumission" style="text;html=1;align=left;verticalAlign=middle;whiteSpace=wrap;rounded=0;" parent="g43DRVjJpBwtmWt6dZrs-11" vertex="1">
          <mxGeometry x="13" y="90" width="146" height="30" as="geometry" />
        </mxCell>
        <mxCell id="6ejBX6rc1ui5b2HfKpKe-2" value="-statut" style="text;html=1;align=left;verticalAlign=middle;whiteSpace=wrap;rounded=0;" parent="g43DRVjJpBwtmWt6dZrs-11" vertex="1">
          <mxGeometry x="13" y="120" width="146" height="30" as="geometry" />
        </mxCell>
        <mxCell id="g43DRVjJpBwtmWt6dZrs-15" value="livraison" style="swimlane;whiteSpace=wrap;html=1;" parent="1" vertex="1">
          <mxGeometry x="430" y="10" width="160" height="170" as="geometry">
            <mxRectangle x="80" y="40" width="140" height="30" as="alternateBounds" />
          </mxGeometry>
        </mxCell>
        <mxCell id="g43DRVjJpBwtmWt6dZrs-16" value="&lt;div style=&quot;&quot;&gt;&lt;span style=&quot;background-color: initial;&quot;&gt;-&lt;/span&gt;Fournisseur&lt;span style=&quot;background-color: initial;&quot;&gt;_id&lt;/span&gt;&lt;/div&gt;" style="text;html=1;align=left;verticalAlign=middle;whiteSpace=wrap;rounded=0;" parent="g43DRVjJpBwtmWt6dZrs-15" vertex="1">
          <mxGeometry x="10" y="37" width="90" height="30" as="geometry" />
        </mxCell>
        <mxCell id="g43DRVjJpBwtmWt6dZrs-17" value="-nomFournisseur" style="text;html=1;align=left;verticalAlign=middle;whiteSpace=wrap;rounded=0;" parent="g43DRVjJpBwtmWt6dZrs-15" vertex="1">
          <mxGeometry x="10" y="60" width="100" height="30" as="geometry" />
        </mxCell>
        <mxCell id="g43DRVjJpBwtmWt6dZrs-18" value="-adresse" style="text;html=1;align=left;verticalAlign=middle;whiteSpace=wrap;rounded=0;" parent="g43DRVjJpBwtmWt6dZrs-15" vertex="1">
          <mxGeometry x="10" y="90" width="60" height="30" as="geometry" />
        </mxCell>
        <mxCell id="6ejBX6rc1ui5b2HfKpKe-30" value="-contact" style="text;html=1;align=left;verticalAlign=middle;whiteSpace=wrap;rounded=0;" parent="g43DRVjJpBwtmWt6dZrs-15" vertex="1">
          <mxGeometry x="10" y="140" width="60" height="30" as="geometry" />
        </mxCell>
        <mxCell id="6ejBX6rc1ui5b2HfKpKe-29" value="-servicesOfferts" style="text;html=1;align=left;verticalAlign=middle;whiteSpace=wrap;rounded=0;" parent="g43DRVjJpBwtmWt6dZrs-15" vertex="1">
          <mxGeometry x="10" y="120" width="100" height="30" as="geometry" />
        </mxCell>
        <mxCell id="g43DRVjJpBwtmWt6dZrs-21" value="&lt;font style=&quot;vertical-align: inherit;&quot;&gt;&lt;font style=&quot;vertical-align: inherit;&quot;&gt;Paiement&lt;/font&gt;&lt;/font&gt;" style="swimlane;whiteSpace=wrap;html=1;" parent="1" vertex="1">
          <mxGeometry x="750" y="282" width="160" height="228" as="geometry" />
        </mxCell>
        <mxCell id="g43DRVjJpBwtmWt6dZrs-22" value="&lt;font style=&quot;vertical-align: inherit;&quot;&gt;&lt;font style=&quot;vertical-align: inherit;&quot;&gt;-paiement_id&lt;/font&gt;&lt;/font&gt;" style="text;html=1;align=center;verticalAlign=middle;whiteSpace=wrap;rounded=0;labelPosition=center;verticalLabelPosition=middle;" parent="g43DRVjJpBwtmWt6dZrs-21" vertex="1">
          <mxGeometry x="10" y="30" width="80" height="30" as="geometry" />
        </mxCell>
        <mxCell id="g43DRVjJpBwtmWt6dZrs-23" value="&lt;font style=&quot;vertical-align: inherit;&quot;&gt;&lt;font style=&quot;vertical-align: inherit;&quot;&gt;-mode&lt;/font&gt;&lt;/font&gt;" style="text;html=1;align=center;verticalAlign=middle;whiteSpace=wrap;rounded=0;labelPosition=center;verticalLabelPosition=middle;" parent="g43DRVjJpBwtmWt6dZrs-21" vertex="1">
          <mxGeometry y="80" width="60" height="30" as="geometry" />
        </mxCell>
        <mxCell id="g43DRVjJpBwtmWt6dZrs-24" value="&lt;font style=&quot;vertical-align: inherit;&quot;&gt;&lt;font style=&quot;vertical-align: inherit;&quot;&gt;-montant&lt;/font&gt;&lt;/font&gt;" style="text;html=1;align=center;verticalAlign=middle;whiteSpace=wrap;rounded=0;labelPosition=center;verticalLabelPosition=middle;" parent="g43DRVjJpBwtmWt6dZrs-21" vertex="1">
          <mxGeometry x="-10" y="50" width="100" height="30" as="geometry" />
        </mxCell>
        <mxCell id="g43DRVjJpBwtmWt6dZrs-25" value="&lt;font style=&quot;vertical-align: inherit;&quot;&gt;&lt;font style=&quot;vertical-align: inherit;&quot;&gt;-typePaiement&lt;/font&gt;&lt;/font&gt;" style="text;html=1;align=center;verticalAlign=middle;whiteSpace=wrap;rounded=0;labelPosition=center;verticalLabelPosition=middle;" parent="g43DRVjJpBwtmWt6dZrs-21" vertex="1">
          <mxGeometry x="5" y="118" width="90" height="20" as="geometry" />
        </mxCell>
        <mxCell id="6ejBX6rc1ui5b2HfKpKe-4" value="&lt;font style=&quot;vertical-align: inherit;&quot;&gt;&lt;font style=&quot;vertical-align: inherit;&quot;&gt;-effectuerPaiement&lt;/font&gt;&lt;/font&gt;" style="text;html=1;align=center;verticalAlign=middle;whiteSpace=wrap;rounded=0;labelPosition=center;verticalLabelPosition=middle;" parent="g43DRVjJpBwtmWt6dZrs-21" vertex="1">
          <mxGeometry y="198" width="130" height="20" as="geometry" />
        </mxCell>
        <mxCell id="6ejBX6rc1ui5b2HfKpKe-3" value="&lt;font style=&quot;vertical-align: inherit;&quot;&gt;&lt;font style=&quot;vertical-align: inherit;&quot;&gt;-statut&lt;/font&gt;&lt;/font&gt;" style="text;html=1;align=center;verticalAlign=middle;whiteSpace=wrap;rounded=0;labelPosition=center;verticalLabelPosition=middle;" parent="g43DRVjJpBwtmWt6dZrs-21" vertex="1">
          <mxGeometry x="-15" y="158" width="90" height="20" as="geometry" />
        </mxCell>
        <mxCell id="g43DRVjJpBwtmWt6dZrs-26" value="&lt;font style=&quot;vertical-align: inherit;&quot;&gt;&lt;font style=&quot;vertical-align: inherit;&quot;&gt;ProjetUrbain&lt;/font&gt;&lt;/font&gt;" style="swimlane;whiteSpace=wrap;html=1;" parent="1" vertex="1">
          <mxGeometry x="680" y="-200" width="160" height="160" as="geometry" />
        </mxCell>
        <mxCell id="g43DRVjJpBwtmWt6dZrs-27" value="&lt;font style=&quot;vertical-align: inherit;&quot;&gt;&lt;font style=&quot;vertical-align: inherit;&quot;&gt;-Projet_id&lt;/font&gt;&lt;/font&gt;" style="text;html=1;align=center;verticalAlign=middle;whiteSpace=wrap;rounded=0;" parent="g43DRVjJpBwtmWt6dZrs-26" vertex="1">
          <mxGeometry x="-10" y="30" width="100" height="30" as="geometry" />
        </mxCell>
        <mxCell id="g43DRVjJpBwtmWt6dZrs-28" value="&lt;font style=&quot;vertical-align: inherit;&quot;&gt;&lt;font style=&quot;vertical-align: inherit;&quot;&gt;-nomProjet&lt;/font&gt;&lt;/font&gt;" style="text;html=1;align=left;verticalAlign=middle;whiteSpace=wrap;rounded=0;" parent="g43DRVjJpBwtmWt6dZrs-26" vertex="1">
          <mxGeometry x="5" y="60" width="90" height="30" as="geometry" />
        </mxCell>
        <mxCell id="g43DRVjJpBwtmWt6dZrs-29" value="&lt;font style=&quot;vertical-align: inherit;&quot;&gt;&lt;font style=&quot;vertical-align: inherit;&quot;&gt;-budget&lt;/font&gt;&lt;/font&gt;" style="text;html=1;align=left;verticalAlign=middle;whiteSpace=wrap;rounded=0;" parent="g43DRVjJpBwtmWt6dZrs-26" vertex="1">
          <mxGeometry x="10" y="90" width="80" height="30" as="geometry" />
        </mxCell>
        <mxCell id="g43DRVjJpBwtmWt6dZrs-30" value="&lt;font style=&quot;vertical-align: inherit;&quot;&gt;&lt;font style=&quot;vertical-align: inherit;&quot;&gt;&lt;font style=&quot;vertical-align: inherit;&quot;&gt;&lt;font style=&quot;vertical-align: inherit;&quot;&gt;-étatAvancement&lt;/font&gt;&lt;/font&gt;&lt;/font&gt;&lt;/font&gt;" style="text;html=1;align=left;verticalAlign=middle;whiteSpace=wrap;rounded=0;" parent="g43DRVjJpBwtmWt6dZrs-26" vertex="1">
          <mxGeometry x="10" y="120" width="115" height="30" as="geometry" />
        </mxCell>
        <mxCell id="g43DRVjJpBwtmWt6dZrs-31" value="&lt;font style=&quot;vertical-align: inherit;&quot;&gt;&lt;font style=&quot;vertical-align: inherit;&quot;&gt;Utilisateur&lt;/font&gt;&lt;/font&gt;" style="swimlane;whiteSpace=wrap;html=1;startSize=23;" parent="1" vertex="1">
          <mxGeometry x="260" y="-300" width="160" height="200" as="geometry" />
        </mxCell>
        <mxCell id="g43DRVjJpBwtmWt6dZrs-32" value="&lt;div style=&quot;&quot;&gt;&lt;span style=&quot;background-color: initial;&quot;&gt;-Utilisateur_id&lt;/span&gt;&lt;/div&gt;" style="text;html=1;align=left;verticalAlign=middle;whiteSpace=wrap;rounded=0;" parent="g43DRVjJpBwtmWt6dZrs-31" vertex="1">
          <mxGeometry x="5" y="30" width="105" height="30" as="geometry" />
        </mxCell>
        <mxCell id="g43DRVjJpBwtmWt6dZrs-33" value="&lt;font style=&quot;vertical-align: inherit;&quot;&gt;&lt;font style=&quot;vertical-align: inherit;&quot;&gt;&lt;font style=&quot;vertical-align: inherit;&quot;&gt;&lt;font style=&quot;vertical-align: inherit;&quot;&gt;-nom&lt;/font&gt;&lt;/font&gt;&lt;/font&gt;&lt;/font&gt;" style="text;html=1;align=left;verticalAlign=middle;whiteSpace=wrap;rounded=0;" parent="g43DRVjJpBwtmWt6dZrs-31" vertex="1">
          <mxGeometry x="5" y="60" width="100" height="30" as="geometry" />
        </mxCell>
        <mxCell id="g43DRVjJpBwtmWt6dZrs-34" value="&lt;font style=&quot;vertical-align: inherit;&quot;&gt;&lt;font style=&quot;vertical-align: inherit;&quot;&gt;-email&lt;/font&gt;&lt;/font&gt;" style="text;html=1;align=left;verticalAlign=middle;whiteSpace=wrap;rounded=0;" parent="g43DRVjJpBwtmWt6dZrs-31" vertex="1">
          <mxGeometry x="5" y="90" width="90" height="30" as="geometry" />
        </mxCell>
        <mxCell id="g43DRVjJpBwtmWt6dZrs-35" value="&lt;font style=&quot;vertical-align: inherit;&quot;&gt;&lt;font style=&quot;vertical-align: inherit;&quot;&gt;-adresse&lt;/font&gt;&lt;/font&gt;" style="text;html=1;align=left;verticalAlign=middle;whiteSpace=wrap;rounded=0;" parent="g43DRVjJpBwtmWt6dZrs-31" vertex="1">
          <mxGeometry x="5" y="130" width="70" height="30" as="geometry" />
        </mxCell>
        <mxCell id="g43DRVjJpBwtmWt6dZrs-37" value="&lt;font style=&quot;vertical-align: inherit;&quot;&gt;&lt;font style=&quot;vertical-align: inherit;&quot;&gt;-role&lt;/font&gt;&lt;/font&gt;" style="text;html=1;align=left;verticalAlign=middle;whiteSpace=wrap;rounded=0;" parent="g43DRVjJpBwtmWt6dZrs-31" vertex="1">
          <mxGeometry x="5" y="160" width="70" height="30" as="geometry" />
        </mxCell>
        <mxCell id="g43DRVjJpBwtmWt6dZrs-53" value="&lt;font style=&quot;vertical-align: inherit;&quot;&gt;&lt;font style=&quot;vertical-align: inherit;&quot;&gt;&lt;font style=&quot;vertical-align: inherit;&quot;&gt;&lt;font style=&quot;vertical-align: inherit;&quot;&gt;Document&lt;/font&gt;&lt;/font&gt;&lt;/font&gt;&lt;/font&gt;" style="swimlane;whiteSpace=wrap;html=1;" parent="1" vertex="1">
          <mxGeometry x="680" y="80" width="160" height="140" as="geometry" />
        </mxCell>
        <mxCell id="g43DRVjJpBwtmWt6dZrs-54" value="&lt;font style=&quot;vertical-align: inherit;&quot;&gt;&lt;font style=&quot;vertical-align: inherit;&quot;&gt;&lt;font style=&quot;vertical-align: inherit;&quot;&gt;&lt;font style=&quot;vertical-align: inherit;&quot;&gt;&lt;font style=&quot;vertical-align: inherit;&quot;&gt;&lt;font style=&quot;vertical-align: inherit;&quot;&gt;&lt;font style=&quot;vertical-align: inherit;&quot;&gt;&lt;font style=&quot;vertical-align: inherit;&quot;&gt;-Document_id&lt;/font&gt;&lt;/font&gt;&lt;/font&gt;&lt;/font&gt;&lt;/font&gt;&lt;/font&gt;&lt;/font&gt;&lt;/font&gt;" style="text;html=1;align=left;verticalAlign=middle;whiteSpace=wrap;rounded=0;" parent="g43DRVjJpBwtmWt6dZrs-53" vertex="1">
          <mxGeometry x="8" y="30" width="120" height="30" as="geometry" />
        </mxCell>
        <mxCell id="g43DRVjJpBwtmWt6dZrs-55" value="&lt;font style=&quot;vertical-align: inherit;&quot;&gt;&lt;font style=&quot;vertical-align: inherit;&quot;&gt;&lt;font style=&quot;vertical-align: inherit;&quot;&gt;&lt;font style=&quot;vertical-align: inherit;&quot;&gt;&lt;font style=&quot;vertical-align: inherit;&quot;&gt;&lt;font style=&quot;vertical-align: inherit;&quot;&gt;-typeDocument_id&lt;/font&gt;&lt;/font&gt;&lt;/font&gt;&lt;/font&gt;&lt;/font&gt;&lt;/font&gt;" style="text;html=1;align=left;verticalAlign=middle;whiteSpace=wrap;rounded=0;" parent="g43DRVjJpBwtmWt6dZrs-53" vertex="1">
          <mxGeometry x="8" y="65" width="120" height="30" as="geometry" />
        </mxCell>
        <mxCell id="g43DRVjJpBwtmWt6dZrs-56" value="&lt;font style=&quot;vertical-align: inherit;&quot;&gt;&lt;font style=&quot;vertical-align: inherit;&quot;&gt;&lt;font style=&quot;vertical-align: inherit;&quot;&gt;&lt;font style=&quot;vertical-align: inherit;&quot;&gt;&lt;font style=&quot;vertical-align: inherit;&quot;&gt;&lt;font style=&quot;vertical-align: inherit;&quot;&gt;-dateEmission&lt;/font&gt;&lt;/font&gt;&lt;/font&gt;&lt;/font&gt;&lt;/font&gt;&lt;/font&gt;" style="text;html=1;align=left;verticalAlign=middle;whiteSpace=wrap;rounded=0;" parent="g43DRVjJpBwtmWt6dZrs-53" vertex="1">
          <mxGeometry x="8" y="100" width="130" height="30" as="geometry" />
        </mxCell>
        <mxCell id="g43DRVjJpBwtmWt6dZrs-64" value="&lt;font style=&quot;vertical-align: inherit;&quot;&gt;&lt;font style=&quot;vertical-align: inherit;&quot;&gt;&lt;font style=&quot;vertical-align: inherit;&quot;&gt;&lt;font style=&quot;vertical-align: inherit;&quot;&gt;0,n&lt;/font&gt;&lt;/font&gt;&lt;/font&gt;&lt;/font&gt;" style="text;html=1;align=center;verticalAlign=middle;whiteSpace=wrap;rounded=0;" parent="1" vertex="1">
          <mxGeometry x="200" y="230" width="80" height="40" as="geometry" />
        </mxCell>
        <mxCell id="g43DRVjJpBwtmWt6dZrs-78" value="&lt;font style=&quot;vertical-align: inherit;&quot;&gt;&lt;font style=&quot;vertical-align: inherit;&quot;&gt;&lt;font style=&quot;vertical-align: inherit;&quot;&gt;&lt;font style=&quot;vertical-align: inherit;&quot;&gt;1&lt;/font&gt;&lt;/font&gt;&lt;/font&gt;&lt;/font&gt;" style="text;html=1;align=center;verticalAlign=middle;whiteSpace=wrap;rounded=0;" parent="1" vertex="1">
          <mxGeometry x="300" y="-100" width="40" height="40" as="geometry" />
        </mxCell>
        <mxCell id="g43DRVjJpBwtmWt6dZrs-81" value="&lt;font style=&quot;vertical-align: inherit;&quot;&gt;&lt;font style=&quot;vertical-align: inherit;&quot;&gt;&lt;font style=&quot;vertical-align: inherit;&quot;&gt;&lt;font style=&quot;vertical-align: inherit;&quot;&gt;1,n&lt;/font&gt;&lt;/font&gt;&lt;/font&gt;&lt;/font&gt;" style="text;html=1;align=center;verticalAlign=middle;whiteSpace=wrap;rounded=0;" parent="1" vertex="1">
          <mxGeometry x="630" y="220" width="80" height="40" as="geometry" />
        </mxCell>
        <mxCell id="g43DRVjJpBwtmWt6dZrs-82" value="&lt;font style=&quot;vertical-align: inherit;&quot;&gt;&lt;font style=&quot;vertical-align: inherit;&quot;&gt;&lt;font style=&quot;vertical-align: inherit;&quot;&gt;&lt;font style=&quot;vertical-align: inherit;&quot;&gt; ProjetAmenagement&lt;/font&gt;&lt;/font&gt;&lt;/font&gt;&lt;/font&gt;" style="swimlane;whiteSpace=wrap;html=1;startSize=10;" parent="1" vertex="1">
          <mxGeometry x="-160" y="-270" width="160" height="200" as="geometry" />
        </mxCell>
        <mxCell id="g43DRVjJpBwtmWt6dZrs-83" value="&lt;font style=&quot;vertical-align: inherit;&quot;&gt;&lt;font style=&quot;vertical-align: inherit;&quot;&gt;&lt;font style=&quot;vertical-align: inherit;&quot;&gt;&lt;font style=&quot;vertical-align: inherit;&quot;&gt;&lt;font style=&quot;vertical-align: inherit;&quot;&gt;&lt;font style=&quot;vertical-align: inherit;&quot;&gt;&lt;font style=&quot;vertical-align: inherit;&quot;&gt;&lt;font style=&quot;vertical-align: inherit;&quot;&gt;-nomAmenagement&lt;/font&gt;&lt;/font&gt;&lt;/font&gt;&lt;/font&gt;&lt;/font&gt;&lt;/font&gt;&lt;/font&gt;&lt;/font&gt;" style="text;html=1;align=left;verticalAlign=middle;whiteSpace=wrap;rounded=0;" parent="g43DRVjJpBwtmWt6dZrs-82" vertex="1">
          <mxGeometry x="5" y="60" width="150" height="30" as="geometry" />
        </mxCell>
        <mxCell id="g43DRVjJpBwtmWt6dZrs-84" value="&lt;font style=&quot;vertical-align: inherit;&quot;&gt;&lt;font style=&quot;vertical-align: inherit;&quot;&gt;&lt;font style=&quot;vertical-align: inherit;&quot;&gt;&lt;font style=&quot;vertical-align: inherit;&quot;&gt;&lt;font style=&quot;vertical-align: inherit;&quot;&gt;&lt;font style=&quot;vertical-align: inherit;&quot;&gt;-Amenagement_id&lt;/font&gt;&lt;/font&gt;&lt;/font&gt;&lt;/font&gt;&lt;/font&gt;&lt;/font&gt;" style="text;html=1;align=left;verticalAlign=middle;whiteSpace=wrap;rounded=0;" parent="g43DRVjJpBwtmWt6dZrs-82" vertex="1">
          <mxGeometry x="5" y="35" width="125" height="30" as="geometry" />
        </mxCell>
        <mxCell id="g43DRVjJpBwtmWt6dZrs-85" value="&lt;font style=&quot;vertical-align: inherit;&quot;&gt;&lt;font style=&quot;vertical-align: inherit;&quot;&gt;&lt;font style=&quot;vertical-align: inherit;&quot;&gt;&lt;font style=&quot;vertical-align: inherit;&quot;&gt;&lt;font style=&quot;vertical-align: inherit;&quot;&gt;&lt;font style=&quot;vertical-align: inherit;&quot;&gt;&lt;font style=&quot;vertical-align: inherit;&quot;&gt;&lt;font style=&quot;vertical-align: inherit;&quot;&gt;&lt;font style=&quot;vertical-align: inherit;&quot;&gt;&lt;font style=&quot;vertical-align: inherit;&quot;&gt;-dateAmenagement&lt;/font&gt;&lt;/font&gt;&lt;/font&gt;&lt;/font&gt;&lt;/font&gt;&lt;/font&gt;&lt;/font&gt;&lt;/font&gt;&lt;/font&gt;&lt;/font&gt;" style="text;html=1;align=left;verticalAlign=middle;whiteSpace=wrap;rounded=0;" parent="g43DRVjJpBwtmWt6dZrs-82" vertex="1">
          <mxGeometry x="5" y="90" width="120" height="30" as="geometry" />
        </mxCell>
        <mxCell id="g43DRVjJpBwtmWt6dZrs-86" value="&lt;font style=&quot;vertical-align: inherit;&quot;&gt;&lt;font style=&quot;vertical-align: inherit;&quot;&gt;&lt;font style=&quot;vertical-align: inherit;&quot;&gt;&lt;font style=&quot;vertical-align: inherit;&quot;&gt;&lt;font style=&quot;vertical-align: inherit;&quot;&gt;&lt;font style=&quot;vertical-align: inherit;&quot;&gt;&lt;font style=&quot;vertical-align: inherit;&quot;&gt;&lt;font style=&quot;vertical-align: inherit;&quot;&gt;-lieu&lt;/font&gt;&lt;/font&gt;&lt;/font&gt;&lt;/font&gt;&lt;/font&gt;&lt;/font&gt;&lt;/font&gt;&lt;/font&gt;" style="text;html=1;align=left;verticalAlign=middle;whiteSpace=wrap;rounded=0;" parent="g43DRVjJpBwtmWt6dZrs-82" vertex="1">
          <mxGeometry x="5" y="120" width="130" height="30" as="geometry" />
        </mxCell>
        <mxCell id="6ejBX6rc1ui5b2HfKpKe-37" value="&lt;font style=&quot;vertical-align: inherit;&quot;&gt;&lt;font style=&quot;vertical-align: inherit;&quot;&gt;&lt;font style=&quot;vertical-align: inherit;&quot;&gt;&lt;font style=&quot;vertical-align: inherit;&quot;&gt;&lt;font style=&quot;vertical-align: inherit;&quot;&gt;&lt;font style=&quot;vertical-align: inherit;&quot;&gt;&lt;font style=&quot;vertical-align: inherit;&quot;&gt;&lt;font style=&quot;vertical-align: inherit;&quot;&gt;-organisateur&lt;/font&gt;&lt;/font&gt;&lt;/font&gt;&lt;/font&gt;&lt;/font&gt;&lt;/font&gt;&lt;/font&gt;&lt;/font&gt;" style="text;html=1;align=left;verticalAlign=middle;whiteSpace=wrap;rounded=0;" parent="g43DRVjJpBwtmWt6dZrs-82" vertex="1">
          <mxGeometry x="5" y="160" width="130" height="30" as="geometry" />
        </mxCell>
        <mxCell id="6ejBX6rc1ui5b2HfKpKe-38" value="&lt;font style=&quot;vertical-align: inherit;&quot;&gt;&lt;font style=&quot;vertical-align: inherit;&quot;&gt;&lt;font style=&quot;vertical-align: inherit;&quot;&gt;&lt;font style=&quot;vertical-align: inherit;&quot;&gt;&lt;font style=&quot;vertical-align: inherit;&quot;&gt;&lt;font style=&quot;vertical-align: inherit;&quot;&gt;&lt;font style=&quot;vertical-align: inherit;&quot;&gt;&lt;font style=&quot;vertical-align: inherit;&quot;&gt;-description&lt;/font&gt;&lt;/font&gt;&lt;/font&gt;&lt;/font&gt;&lt;/font&gt;&lt;/font&gt;&lt;/font&gt;&lt;/font&gt;" style="text;html=1;align=left;verticalAlign=middle;whiteSpace=wrap;rounded=0;" parent="g43DRVjJpBwtmWt6dZrs-82" vertex="1">
          <mxGeometry x="5" y="140" width="130" height="30" as="geometry" />
        </mxCell>
        <mxCell id="g43DRVjJpBwtmWt6dZrs-87" value="&lt;font style=&quot;vertical-align: inherit;&quot;&gt;&lt;font style=&quot;vertical-align: inherit;&quot;&gt;&lt;font style=&quot;vertical-align: inherit;&quot;&gt;&lt;font style=&quot;vertical-align: inherit;&quot;&gt;BudgetCommunal&lt;/font&gt;&lt;/font&gt;&lt;/font&gt;&lt;/font&gt;" style="swimlane;whiteSpace=wrap;html=1;" parent="1" vertex="1">
          <mxGeometry y="480" width="160" height="160" as="geometry" />
        </mxCell>
        <mxCell id="g43DRVjJpBwtmWt6dZrs-88" value="&lt;font style=&quot;vertical-align: inherit;&quot;&gt;&lt;font style=&quot;vertical-align: inherit;&quot;&gt;&lt;font style=&quot;vertical-align: inherit;&quot;&gt;&lt;font style=&quot;vertical-align: inherit;&quot;&gt;&lt;font style=&quot;vertical-align: inherit;&quot;&gt;&lt;font style=&quot;vertical-align: inherit;&quot;&gt;-vendeur_id&lt;/font&gt;&lt;/font&gt;&lt;/font&gt;&lt;/font&gt;&lt;/font&gt;&lt;/font&gt;" style="text;html=1;align=left;verticalAlign=middle;whiteSpace=wrap;rounded=0;" parent="g43DRVjJpBwtmWt6dZrs-87" vertex="1">
          <mxGeometry x="10" y="30" width="100" height="30" as="geometry" />
        </mxCell>
        <mxCell id="g43DRVjJpBwtmWt6dZrs-89" value="&lt;font style=&quot;vertical-align: inherit;&quot;&gt;&lt;font style=&quot;vertical-align: inherit;&quot;&gt;&lt;font style=&quot;vertical-align: inherit;&quot;&gt;&lt;font style=&quot;vertical-align: inherit;&quot;&gt;&lt;font style=&quot;vertical-align: inherit;&quot;&gt;&lt;font style=&quot;vertical-align: inherit;&quot;&gt;-nom&lt;/font&gt;&lt;/font&gt;&lt;/font&gt;&lt;/font&gt;&lt;/font&gt;&lt;/font&gt;" style="text;html=1;align=left;verticalAlign=middle;whiteSpace=wrap;rounded=0;" parent="g43DRVjJpBwtmWt6dZrs-87" vertex="1">
          <mxGeometry x="10" y="60" width="60" height="30" as="geometry" />
        </mxCell>
        <mxCell id="g43DRVjJpBwtmWt6dZrs-90" value="&lt;font style=&quot;vertical-align: inherit;&quot;&gt;&lt;font style=&quot;vertical-align: inherit;&quot;&gt;&lt;font style=&quot;vertical-align: inherit;&quot;&gt;&lt;font style=&quot;vertical-align: inherit;&quot;&gt;&lt;font style=&quot;vertical-align: inherit;&quot;&gt;&lt;font style=&quot;vertical-align: inherit;&quot;&gt;-email&lt;/font&gt;&lt;/font&gt;&lt;/font&gt;&lt;/font&gt;&lt;/font&gt;&lt;/font&gt;" style="text;html=1;align=left;verticalAlign=middle;whiteSpace=wrap;rounded=0;" parent="g43DRVjJpBwtmWt6dZrs-87" vertex="1">
          <mxGeometry x="10" y="90" width="100" height="20" as="geometry" />
        </mxCell>
        <mxCell id="g43DRVjJpBwtmWt6dZrs-108" value="&lt;font style=&quot;vertical-align: inherit;&quot;&gt;&lt;font style=&quot;vertical-align: inherit;&quot;&gt;&lt;font style=&quot;vertical-align: inherit;&quot;&gt;&lt;font style=&quot;vertical-align: inherit;&quot;&gt;Categorie&lt;/font&gt;&lt;/font&gt;&lt;/font&gt;&lt;/font&gt;" style="swimlane;whiteSpace=wrap;html=1;" parent="1" vertex="1">
          <mxGeometry x="-220" y="280" width="160" height="160" as="geometry" />
        </mxCell>
        <mxCell id="g43DRVjJpBwtmWt6dZrs-110" value="&lt;font style=&quot;vertical-align: inherit;&quot;&gt;&lt;font style=&quot;vertical-align: inherit;&quot;&gt;&lt;font style=&quot;vertical-align: inherit;&quot;&gt;&lt;font style=&quot;vertical-align: inherit;&quot;&gt;&lt;font style=&quot;vertical-align: inherit;&quot;&gt;&lt;font style=&quot;vertical-align: inherit;&quot;&gt;-categorie_id&lt;/font&gt;&lt;/font&gt;&lt;/font&gt;&lt;/font&gt;&lt;/font&gt;&lt;/font&gt;" style="text;html=1;align=left;verticalAlign=middle;whiteSpace=wrap;rounded=0;" parent="g43DRVjJpBwtmWt6dZrs-108" vertex="1">
          <mxGeometry x="5" y="35" width="90" height="30" as="geometry" />
        </mxCell>
        <mxCell id="g43DRVjJpBwtmWt6dZrs-111" value="&lt;font style=&quot;vertical-align: inherit;&quot;&gt;&lt;font style=&quot;vertical-align: inherit;&quot;&gt;&lt;font style=&quot;vertical-align: inherit;&quot;&gt;&lt;font style=&quot;vertical-align: inherit;&quot;&gt;&lt;font style=&quot;vertical-align: inherit;&quot;&gt;&lt;font style=&quot;vertical-align: inherit;&quot;&gt;&lt;font style=&quot;vertical-align: inherit;&quot;&gt;&lt;font style=&quot;vertical-align: inherit;&quot;&gt;&lt;font style=&quot;vertical-align: inherit;&quot;&gt;&lt;font style=&quot;vertical-align: inherit;&quot;&gt;-nom&lt;/font&gt;&lt;/font&gt;&lt;/font&gt;&lt;/font&gt;&lt;/font&gt;&lt;/font&gt;&lt;/font&gt;&lt;/font&gt;&lt;/font&gt;&lt;/font&gt;" style="text;html=1;align=left;verticalAlign=middle;whiteSpace=wrap;rounded=0;" parent="g43DRVjJpBwtmWt6dZrs-108" vertex="1">
          <mxGeometry x="10" y="80" width="120" height="30" as="geometry" />
        </mxCell>
        <mxCell id="g43DRVjJpBwtmWt6dZrs-112" value="&lt;font style=&quot;vertical-align: inherit;&quot;&gt;&lt;font style=&quot;vertical-align: inherit;&quot;&gt;&lt;font style=&quot;vertical-align: inherit;&quot;&gt;&lt;font style=&quot;vertical-align: inherit;&quot;&gt;&lt;font style=&quot;vertical-align: inherit;&quot;&gt;&lt;font style=&quot;vertical-align: inherit;&quot;&gt;&lt;font style=&quot;vertical-align: inherit;&quot;&gt;&lt;font style=&quot;vertical-align: inherit;&quot;&gt;-description&lt;/font&gt;&lt;/font&gt;&lt;/font&gt;&lt;/font&gt;&lt;/font&gt;&lt;/font&gt;&lt;/font&gt;&lt;/font&gt;" style="text;html=1;align=left;verticalAlign=middle;whiteSpace=wrap;rounded=0;" parent="g43DRVjJpBwtmWt6dZrs-108" vertex="1">
          <mxGeometry x="5" y="110" width="130" height="30" as="geometry" />
        </mxCell>
        <mxCell id="6ejBX6rc1ui5b2HfKpKe-10" value="&lt;font style=&quot;vertical-align: inherit;&quot;&gt;&lt;font style=&quot;vertical-align: inherit;&quot;&gt; Infrastructure&lt;/font&gt;&lt;/font&gt;" style="swimlane;whiteSpace=wrap;html=1;startSize=23;" parent="1" vertex="1">
          <mxGeometry x="320" y="610" width="210" height="200" as="geometry" />
        </mxCell>
        <mxCell id="6ejBX6rc1ui5b2HfKpKe-11" value="&lt;div style=&quot;&quot;&gt;&lt;span style=&quot;background-color: initial;&quot;&gt;-&lt;/span&gt;&lt;span style=&quot;background-color: initial;&quot;&gt;Infrastructure&lt;/span&gt;&lt;span style=&quot;background-color: initial;&quot;&gt;_id&lt;/span&gt;&lt;/div&gt;" style="text;html=1;align=left;verticalAlign=middle;whiteSpace=wrap;rounded=0;" parent="6ejBX6rc1ui5b2HfKpKe-10" vertex="1">
          <mxGeometry x="5" y="30" width="105" height="30" as="geometry" />
        </mxCell>
        <mxCell id="6ejBX6rc1ui5b2HfKpKe-12" value="&lt;font style=&quot;vertical-align: inherit;&quot;&gt;&lt;font style=&quot;vertical-align: inherit;&quot;&gt;&lt;font style=&quot;vertical-align: inherit;&quot;&gt;&lt;font style=&quot;vertical-align: inherit;&quot;&gt;-nom Infrastructure&lt;/font&gt;&lt;/font&gt;&lt;/font&gt;&lt;/font&gt;" style="text;html=1;align=left;verticalAlign=middle;whiteSpace=wrap;rounded=0;" parent="6ejBX6rc1ui5b2HfKpKe-10" vertex="1">
          <mxGeometry x="5" y="60" width="150" height="30" as="geometry" />
        </mxCell>
        <mxCell id="6ejBX6rc1ui5b2HfKpKe-13" value="&lt;font style=&quot;vertical-align: inherit;&quot;&gt;&lt;font style=&quot;vertical-align: inherit;&quot;&gt;-type&lt;/font&gt;&lt;/font&gt;" style="text;html=1;align=left;verticalAlign=middle;whiteSpace=wrap;rounded=0;" parent="6ejBX6rc1ui5b2HfKpKe-10" vertex="1">
          <mxGeometry x="5" y="90" width="90" height="30" as="geometry" />
        </mxCell>
        <mxCell id="6ejBX6rc1ui5b2HfKpKe-14" value="&lt;font style=&quot;vertical-align: inherit;&quot;&gt;&lt;font style=&quot;vertical-align: inherit;&quot;&gt;-état&lt;/font&gt;&lt;/font&gt;" style="text;html=1;align=left;verticalAlign=middle;whiteSpace=wrap;rounded=0;" parent="6ejBX6rc1ui5b2HfKpKe-10" vertex="1">
          <mxGeometry x="5" y="120" width="70" height="30" as="geometry" />
        </mxCell>
        <mxCell id="6ejBX6rc1ui5b2HfKpKe-15" value="&lt;font style=&quot;vertical-align: inherit;&quot;&gt;&lt;font style=&quot;vertical-align: inherit;&quot;&gt;-dateDernièreRéparation&lt;/font&gt;&lt;/font&gt;" style="text;html=1;align=left;verticalAlign=middle;whiteSpace=wrap;rounded=0;" parent="6ejBX6rc1ui5b2HfKpKe-10" vertex="1">
          <mxGeometry x="5" y="150" width="160" height="30" as="geometry" />
        </mxCell>
        <mxCell id="uNeYrppk_p9gH4xYX-P9-1" value="" style="endArrow=none;html=1;rounded=0;exitX=0;exitY=0.5;exitDx=0;exitDy=0;entryX=1;entryY=0.5;entryDx=0;entryDy=0;" parent="1" source="g43DRVjJpBwtmWt6dZrs-15" target="g43DRVjJpBwtmWt6dZrs-1" edge="1">
          <mxGeometry width="50" height="50" relative="1" as="geometry">
            <mxPoint x="650" y="-105" as="sourcePoint" />
            <mxPoint x="240" y="80" as="targetPoint" />
          </mxGeometry>
        </mxCell>
        <mxCell id="uNeYrppk_p9gH4xYX-P9-4" value="" style="endArrow=none;html=1;rounded=0;exitX=0.25;exitY=1;exitDx=0;exitDy=0;entryX=1;entryY=0.25;entryDx=0;entryDy=0;" parent="1" source="g43DRVjJpBwtmWt6dZrs-53" target="g43DRVjJpBwtmWt6dZrs-7" edge="1">
          <mxGeometry width="50" height="50" relative="1" as="geometry">
            <mxPoint x="740" y="270" as="sourcePoint" />
            <mxPoint x="550" y="255" as="targetPoint" />
          </mxGeometry>
        </mxCell>
        <mxCell id="uNeYrppk_p9gH4xYX-P9-5" value="" style="endArrow=none;html=1;rounded=0;entryX=0.5;entryY=1;entryDx=0;entryDy=0;exitX=0.75;exitY=0;exitDx=0;exitDy=0;" parent="1" source="g43DRVjJpBwtmWt6dZrs-11" target="g43DRVjJpBwtmWt6dZrs-31" edge="1">
          <mxGeometry width="50" height="50" relative="1" as="geometry">
            <mxPoint x="-390" y="110" as="sourcePoint" />
            <mxPoint x="-37" y="230" as="targetPoint" />
          </mxGeometry>
        </mxCell>
        <mxCell id="oy1LN_c4-5CAjc6NWxym-1" value="" style="endArrow=none;html=1;rounded=0;exitX=1;exitY=0.5;exitDx=0;exitDy=0;entryX=0;entryY=1;entryDx=0;entryDy=0;" parent="1" source="g43DRVjJpBwtmWt6dZrs-11" target="g43DRVjJpBwtmWt6dZrs-23" edge="1">
          <mxGeometry width="50" height="50" relative="1" as="geometry">
            <mxPoint x="270" y="280" as="sourcePoint" />
            <mxPoint x="500" y="550" as="targetPoint" />
            <Array as="points">
              <mxPoint x="510" y="550" />
            </Array>
          </mxGeometry>
        </mxCell>
        <mxCell id="oy1LN_c4-5CAjc6NWxym-2" value="" style="endArrow=none;html=1;rounded=0;exitX=0.5;exitY=0;exitDx=0;exitDy=0;entryX=1;entryY=0.75;entryDx=0;entryDy=0;" parent="1" source="g43DRVjJpBwtmWt6dZrs-1" target="g43DRVjJpBwtmWt6dZrs-82" edge="1">
          <mxGeometry width="50" height="50" relative="1" as="geometry">
            <mxPoint x="-50" y="520" as="sourcePoint" />
            <mxPoint x="10" y="-50" as="targetPoint" />
          </mxGeometry>
        </mxCell>
        <mxCell id="oy1LN_c4-5CAjc6NWxym-3" value="" style="endArrow=none;html=1;rounded=0;entryX=0.25;entryY=1;entryDx=0;entryDy=0;exitX=0;exitY=0.5;exitDx=0;exitDy=0;" parent="1" source="g43DRVjJpBwtmWt6dZrs-11" target="g43DRVjJpBwtmWt6dZrs-82" edge="1">
          <mxGeometry width="50" height="50" relative="1" as="geometry">
            <mxPoint x="270" y="280" as="sourcePoint" />
            <mxPoint x="350" y="-90" as="targetPoint" />
          </mxGeometry>
        </mxCell>
        <mxCell id="oy1LN_c4-5CAjc6NWxym-4" value="" style="endArrow=none;html=1;rounded=0;exitX=0.75;exitY=0;exitDx=0;exitDy=0;entryX=0;entryY=0.75;entryDx=0;entryDy=0;" parent="1" source="g43DRVjJpBwtmWt6dZrs-108" target="g43DRVjJpBwtmWt6dZrs-1" edge="1">
          <mxGeometry width="50" height="50" relative="1" as="geometry">
            <mxPoint x="280" y="290" as="sourcePoint" />
            <mxPoint x="-40" y="110" as="targetPoint" />
          </mxGeometry>
        </mxCell>
        <mxCell id="oy1LN_c4-5CAjc6NWxym-5" value="" style="endArrow=none;html=1;rounded=0;entryX=1;entryY=1;entryDx=0;entryDy=0;exitX=0.25;exitY=0;exitDx=0;exitDy=0;" parent="1" source="6ejBX6rc1ui5b2HfKpKe-10" target="g43DRVjJpBwtmWt6dZrs-11" edge="1">
          <mxGeometry width="50" height="50" relative="1" as="geometry">
            <mxPoint x="290" y="300" as="sourcePoint" />
            <mxPoint x="370" y="-70" as="targetPoint" />
          </mxGeometry>
        </mxCell>
        <mxCell id="3heAlL3U4LnsQ5DMnnJj-1" value="&lt;font style=&quot;vertical-align: inherit;&quot;&gt;&lt;font style=&quot;vertical-align: inherit;&quot;&gt;&lt;font style=&quot;vertical-align: inherit;&quot;&gt;&lt;font style=&quot;vertical-align: inherit;&quot;&gt;1,n&lt;/font&gt;&lt;/font&gt;&lt;/font&gt;&lt;/font&gt;" style="text;html=1;align=center;verticalAlign=middle;whiteSpace=wrap;rounded=0;" vertex="1" parent="1">
          <mxGeometry x="570" y="270" width="80" height="40" as="geometry" />
        </mxCell>
        <mxCell id="3heAlL3U4LnsQ5DMnnJj-2" value="&lt;font style=&quot;vertical-align: inherit;&quot;&gt;&lt;font style=&quot;vertical-align: inherit;&quot;&gt;&lt;font style=&quot;vertical-align: inherit;&quot;&gt;&lt;font style=&quot;vertical-align: inherit;&quot;&gt;1&lt;/font&gt;&lt;/font&gt;&lt;/font&gt;&lt;/font&gt;" style="text;html=1;align=center;verticalAlign=middle;whiteSpace=wrap;rounded=0;" vertex="1" parent="1">
          <mxGeometry x="110" y="-30" width="40" height="40" as="geometry" />
        </mxCell>
        <mxCell id="3heAlL3U4LnsQ5DMnnJj-3" value="&lt;font style=&quot;vertical-align: inherit;&quot;&gt;&lt;font style=&quot;vertical-align: inherit;&quot;&gt;&lt;font style=&quot;vertical-align: inherit;&quot;&gt;&lt;font style=&quot;vertical-align: inherit;&quot;&gt;0,n&lt;/font&gt;&lt;/font&gt;&lt;/font&gt;&lt;/font&gt;" style="text;html=1;align=center;verticalAlign=middle;whiteSpace=wrap;rounded=0;" vertex="1" parent="1">
          <mxGeometry x="-20" y="-150" width="80" height="40" as="geometry" />
        </mxCell>
        <mxCell id="3heAlL3U4LnsQ5DMnnJj-4" value="&lt;font style=&quot;vertical-align: inherit;&quot;&gt;&lt;font style=&quot;vertical-align: inherit;&quot;&gt;&lt;font style=&quot;vertical-align: inherit;&quot;&gt;&lt;font style=&quot;vertical-align: inherit;&quot;&gt;1&lt;/font&gt;&lt;/font&gt;&lt;/font&gt;&lt;/font&gt;" style="text;html=1;align=center;verticalAlign=middle;whiteSpace=wrap;rounded=0;" vertex="1" parent="1">
          <mxGeometry x="-150" y="-60" width="40" height="40" as="geometry" />
        </mxCell>
        <mxCell id="3heAlL3U4LnsQ5DMnnJj-6" value="&lt;font style=&quot;vertical-align: inherit;&quot;&gt;&lt;font style=&quot;vertical-align: inherit;&quot;&gt;&lt;font style=&quot;vertical-align: inherit;&quot;&gt;&lt;font style=&quot;vertical-align: inherit;&quot;&gt;1,n&lt;/font&gt;&lt;/font&gt;&lt;/font&gt;&lt;/font&gt;" style="text;html=1;align=center;verticalAlign=middle;whiteSpace=wrap;rounded=0;" vertex="1" parent="1">
          <mxGeometry x="80" y="340" width="80" height="40" as="geometry" />
        </mxCell>
        <mxCell id="3heAlL3U4LnsQ5DMnnJj-7" value="&lt;font style=&quot;vertical-align: inherit;&quot;&gt;&lt;font style=&quot;vertical-align: inherit;&quot;&gt;&lt;font style=&quot;vertical-align: inherit;&quot;&gt;&lt;font style=&quot;vertical-align: inherit;&quot;&gt;1,n&lt;/font&gt;&lt;/font&gt;&lt;/font&gt;&lt;/font&gt;" style="text;html=1;align=center;verticalAlign=middle;whiteSpace=wrap;rounded=0;" vertex="1" parent="1">
          <mxGeometry x="373.5" y="70" width="80" height="40" as="geometry" />
        </mxCell>
        <mxCell id="3heAlL3U4LnsQ5DMnnJj-8" value="&lt;font style=&quot;vertical-align: inherit;&quot;&gt;&lt;font style=&quot;vertical-align: inherit;&quot;&gt;&lt;font style=&quot;vertical-align: inherit;&quot;&gt;&lt;font style=&quot;vertical-align: inherit;&quot;&gt;1&lt;/font&gt;&lt;/font&gt;&lt;/font&gt;&lt;/font&gt;" style="text;html=1;align=center;verticalAlign=middle;whiteSpace=wrap;rounded=0;" vertex="1" parent="1">
          <mxGeometry x="200" y="50" width="40" height="40" as="geometry" />
        </mxCell>
      </root>
    </mxGraphModel>
  </diagram>
</mxfile>
